<svg width="72" height="50" viewBox="0 0 72 50" fill="none" xmlns="http://www.w3.org/2000/svg">
<path fill-rule="evenodd" clip-rule="evenodd" d="M43.1819 0.215521C40.7882 0.363165 39.1618 0.801943 37.5946 1.72269C35.7031 2.83407 35.2358 3.60427 29.8923 14.4172C27.1035 20.0603 24.7463 24.7242 24.6537 24.7813C24.5613 24.8387 24.3784 24.756 24.2471 24.5976C24.116 24.4391 21.8631 19.978 19.2405 14.6842C16.6179 9.39022 14.4081 4.99994 14.3296 4.92788C14.2511 4.85582 12.2297 4.16786 9.83761 3.3989C7.44552 2.62995 4.37494 1.63756 3.01424 1.19379C0.658395 0.425254 0 0.269511 0 0.480906C0 0.68088 24.0017 48.8967 24.2929 49.282C24.5797 49.6613 24.9919 48.9053 30.2369 38.38C33.3367 32.1598 36.0154 26.9092 36.1898 26.7119C36.4874 26.3749 36.552 26.389 37.2556 26.9441C39.4546 28.6793 41.8902 29.8004 44.554 30.3031C45.3642 30.456 48.2349 30.564 51.984 30.5822L57.0338 30.6894C57.7058 30.7037 58.3649 30.8766 58.9573 31.1942C61.8738 33.1588 61.6768 37.0275 58.5798 38.6117C57.8271 38.9967 57.3388 39.0179 49.5718 39.0015C43.0401 38.9876 41.3057 39.0399 41.097 39.2569C40.8112 39.5541 40.1457 40.7956 37.4028 46.1499C36.4151 48.0777 35.6552 49.7033 35.7138 49.7623C35.7727 49.821 39.8069 49.9136 44.6791 49.9678C59.3519 50.1311 61.8338 49.7606 65.9894 46.7874C71.8535 42.5917 73.6218 33.9822 69.9908 27.3054C68.1258 23.8762 64.8195 21.2653 60.8526 20.0895C59.4749 19.6813 58.7305 19.6314 52.7093 19.5436C45.3564 19.4365 45.1929 19.4074 44.005 17.9947C42.4566 16.1534 42.5126 14.0683 44.1545 12.422C45.1227 11.4512 46.278 10.9871 47.7398 10.9817C48.9793 10.9771 48.9859 10.9738 49.5229 10.0946C54.4362 2.0483 55.4806 0.293184 55.4025 0.214898C55.2513 0.063308 45.6447 0.0637233 43.1819 0.215521ZM61.6145 0.261828C60.3145 0.674027 59.5542 1.13565 58.8488 1.94115C57.9653 2.95036 57.5693 3.97017 57.4372 5.57805C57.2387 7.98916 58.4153 10.3207 60.5 11.3221C61.0996 11.6101 62.0161 12 63.5 12C64.9839 12 65.6273 11.8366 66.5 11.3221C68.1891 10.3262 69.1739 8.24271 69.1739 5.99337C69.1739 4.2314 68.6487 2.94746 67.4289 1.72685C65.8851 0.182503 63.6448 -0.382116 61.6145 0.261828Z" fill="#845EC2"/>
</svg>
